<svg width="44" height="45" viewBox="0 0 44 45" fill="none" xmlns="http://www.w3.org/2000/svg">
<mask id="mask0_1_198" style="mask-type:alpha" maskUnits="userSpaceOnUse" x="0" y="0" width="44" height="45">
<rect y="0.75" width="43.75" height="43.75" fill="#C4C4C4"/>
</mask>
<g mask="url(#mask0_1_198)">
<path d="M10.0451 39.3913L43.75 19.6566L33.7049 2.5006L-2.35316e-06 22.2353L10.0451 39.3913Z" fill="#099079"/>
<path d="M31.1165 6.2513L4.5473 21.8083C5.12519 22.7952 4.77041 24.0772 3.75519 24.6716L9.76093 34.9287C10.7762 34.3342 12.0678 34.6522 12.6456 35.6391L39.2149 20.0821C38.637 19.0952 38.9916 17.8133 40.0071 17.2188L34.0012 6.96177C32.9857 7.55639 31.6943 7.23823 31.1165 6.2513Z" fill="#4CE1C6"/>
<path d="M26.4995 18.238C24.6071 15.006 21.0031 13.5979 18.4498 15.0928C15.8966 16.5878 15.3608 20.4198 17.2532 23.6517C19.1456 26.8837 22.7495 28.2918 25.3028 26.7969C27.8561 25.3019 28.3919 21.4699 26.4995 18.238Z" fill="#31978C"/>
<path d="M34.9756 14.4908C35.6449 14.4908 36.1875 13.9482 36.1875 13.2789C36.1875 12.6096 35.6449 12.067 34.9756 12.067C34.3063 12.067 33.7637 12.6096 33.7637 13.2789C33.7637 13.9482 34.3063 14.4908 34.9756 14.4908Z" fill="#31978C"/>
<path d="M8.77701 29.8272C9.44632 29.8272 9.9889 29.2846 9.9889 28.6153C9.9889 27.946 9.44632 27.4034 8.77701 27.4034C8.1077 27.4034 7.56512 27.946 7.56512 28.6153C7.56512 29.2846 8.1077 29.8272 8.77701 29.8272Z" fill="#3EA69B"/>
<path d="M24.3845 25.8044L23.8985 24.9744C22.7974 25.4768 21.6228 25.6098 20.3759 25.3732L20.6268 23.8981C21.5874 24.0787 22.4353 24.0245 23.1731 23.7354L21.8815 21.5295C20.9049 21.8267 20.1199 21.9248 19.5268 21.8242C18.9336 21.7236 18.4451 21.3455 18.0612 20.69C17.6774 20.0344 17.592 19.3644 17.8066 18.6784C18.0215 17.9928 18.4853 17.4162 19.1987 16.9476L18.8657 16.3791L19.5931 15.9532L19.9325 16.5329C20.8019 16.1059 21.7566 15.9283 22.797 16.0013L22.6702 17.4802C21.961 17.417 21.291 17.5142 20.6581 17.7724L21.9096 19.9098L21.9438 19.8897C22.9354 19.5843 23.7377 19.486 24.3507 19.595C24.9648 19.7038 25.4656 20.0902 25.8538 20.7531C26.2422 21.4165 26.3236 22.0946 26.0973 22.7862C25.8716 23.4787 25.3838 24.0693 24.6325 24.5602L25.1117 25.3786L24.3845 25.8044ZM19.2852 18.9352C19.1915 19.2187 19.2196 19.4873 19.3683 19.7413C19.517 19.9953 19.7105 20.1517 19.9486 20.2104C20.1861 20.2701 20.5579 20.2431 21.0625 20.131L19.9107 18.1639C19.5872 18.3943 19.3786 18.6512 19.2852 18.9352ZM24.598 22.5191C24.708 22.221 24.6857 21.939 24.5303 21.6734C24.3751 21.4083 24.1686 21.2466 23.911 21.1886C23.6525 21.1312 23.2563 21.1675 22.722 21.2971L23.9202 23.3433C24.2619 23.093 24.4873 22.8181 24.598 22.5191Z" fill="#44C4A1"/>
<path d="M23.6244 31.4389L30.1693 27.6068L20.1241 10.4508L13.5793 14.2829L23.6244 31.4389Z" fill="#E88080"/>
<path d="M24.1102 31.1569L24.6107 30.8638L14.5656 13.7079L14.0652 14.0009L24.1102 31.1569Z" fill="white"/>
<path d="M29.1825 28.1815L29.683 27.8885L19.6379 10.7325L19.1374 11.0256L29.1825 28.1815Z" fill="white"/>
<path d="M4.7139 41.171L43.0664 33.7973L39.3132 14.2756L0.960652 21.6493L4.7139 41.171Z" fill="#13B096"/>
<path d="M5.56934 38.1119L2.88934 24.1687C3.65964 24.0207 4.16402 23.2763 4.01599 22.506L36.7926 16.2061C36.9407 16.9764 37.6852 17.4808 38.4554 17.3328L41.1353 31.2759C40.3651 31.424 39.8607 32.1684 40.0087 32.9387L7.23207 39.2385C7.08404 38.4682 6.33963 37.9638 5.56934 38.1119Z" fill="#4CE1C6"/>
<path d="M30.9827 25.9153C30.3429 22.5872 25.7895 20.665 20.8124 21.6219C15.8354 22.5787 12.3194 26.0523 12.9593 29.3804C13.5991 32.7084 18.1526 34.6306 23.1296 33.6738C28.1067 32.7169 31.6226 29.2433 30.9827 25.9153Z" fill="#3EA69B"/>
<path d="M36.9131 26.0711C37.5824 26.0711 38.125 25.5285 38.125 24.8592C38.125 24.1899 37.5824 23.6473 36.9131 23.6473C36.2438 23.6473 35.7012 24.1899 35.7012 24.8592C35.7012 25.5285 36.2438 26.0711 36.9131 26.0711Z" fill="#3EA69B"/>
<path d="M7.11295 31.7991C7.78226 31.7991 8.32484 31.2565 8.32484 30.5872C8.32484 29.9179 7.78226 29.3753 7.11295 29.3753C6.44364 29.3753 5.90106 29.9179 5.90106 30.5872C5.90106 31.2565 6.44364 31.7991 7.11295 31.7991Z" fill="#3EA69B"/>
<path d="M18.1507 30.5375L17.0522 30.6982L14.6653 26.4019L15.8987 26.2215L17.424 29.2922L17.4496 29.2884L18.025 25.9105L19.2391 25.7329L18.1507 30.5375Z" fill="#D0FFF7"/>
<path d="M23.1654 29.804L20.8996 27.0975L20.8803 27.1003L21.3411 30.0708L20.2747 30.2268L19.6094 25.6787L20.8621 25.4955L23.1206 28.1964L23.1398 28.1936L22.68 25.2296L23.7464 25.0736L24.4117 29.6217L23.1654 29.804Z" fill="#D0FFF7"/>
<path d="M29.2614 26.5764C29.3197 26.9747 29.2952 27.3304 29.1879 27.6435C29.0843 27.9518 28.9242 28.218 28.7076 28.4421C28.4947 28.6613 28.2428 28.8381 27.9519 28.9726C27.6604 29.1027 27.3583 29.1906 27.0457 29.2364L25.3498 29.4844L24.6845 24.9363L26.329 24.6958C26.6502 24.6488 26.9727 24.641 27.2967 24.6723C27.6199 24.6994 27.9165 24.7829 28.1863 24.9228C28.4554 25.0584 28.6862 25.2608 28.8787 25.5301C29.0712 25.7994 29.1988 26.1481 29.2614 26.5764ZM28.118 26.7437C28.0804 26.4867 28.0066 26.281 27.8965 26.1265C27.7901 25.9671 27.659 25.8485 27.5032 25.7707C27.3512 25.6879 27.1821 25.6383 26.9959 25.6218C26.8141 25.6046 26.6289 25.6099 26.4405 25.6374L25.8945 25.7173L26.2835 28.3768L26.8038 28.3007C27.0008 28.2718 27.1861 28.2229 27.3597 28.1537C27.537 28.0797 27.6866 27.9812 27.8086 27.8584C27.9349 27.735 28.0262 27.5816 28.0825 27.3984C28.1431 27.2146 28.1549 26.9963 28.118 26.7437Z" fill="#D0FFF7"/>
</g>
</svg>
