<svg width="45" height="29" viewBox="0 0 45 29" fill="none" xmlns="http://www.w3.org/2000/svg">
<path d="M42.5115 28.3409H2.73862C1.64029 28.3409 0.75 27.4506 0.75 26.3523V2.48862C0.75 1.39029 1.64029 0.5 2.73862 0.5H42.5114C43.6097 0.5 44.5 1.39029 44.5 2.48862V26.3523C44.5001 27.4505 43.6097 28.3409 42.5115 28.3409Z" fill="#2320D4"/>
<path d="M15.7808 17.4033H20.7524C21.3015 17.4033 21.7468 16.958 21.7468 16.4089C21.7468 15.8598 21.3015 15.4146 20.7524 15.4146H15.7808C15.2317 15.4146 14.7864 15.8598 14.7864 16.4089C14.7864 16.958 15.2317 17.4033 15.7808 17.4033Z" fill="white"/>
<path d="M33.5588 17.4033H38.5304C39.0795 17.4033 39.5248 16.958 39.5248 16.4089C39.5248 15.8598 39.0795 15.4146 38.5304 15.4146H33.5588C33.0097 15.4146 32.5645 15.8598 32.5645 16.4089C32.5646 16.958 33.0097 17.4033 33.5588 17.4033Z" fill="white"/>
<path d="M6.8303 17.4038H11.8019C12.351 17.4038 12.7963 16.9585 12.7963 16.4094C12.7963 15.8603 12.351 15.415 11.8019 15.415H6.8303C6.28119 15.415 5.83594 15.8603 5.83594 16.4094C5.83594 16.9585 6.28108 17.4038 6.8303 17.4038Z" fill="white"/>
<path d="M24.7268 17.4033H29.6984C30.2475 17.4033 30.6928 16.958 30.6928 16.4089C30.6928 15.8598 30.2475 15.4146 29.6984 15.4146H24.7268C24.1777 15.4146 23.7324 15.8598 23.7324 16.4089C23.7324 16.958 24.1777 17.4033 24.7268 17.4033Z" fill="white"/>
<path d="M24.5217 4.91207H38.4422C38.9913 4.91207 39.4365 4.46682 39.4365 3.91771C39.4365 3.3686 38.9913 2.92334 38.4422 2.92334H24.5217C23.9726 2.92334 23.5273 3.3686 23.5273 3.91771C23.5273 4.46682 23.9726 4.91207 24.5217 4.91207Z" fill="white"/>
<path d="M30.4917 8.88888H38.4463C38.9954 8.88888 39.4407 8.44362 39.4407 7.89451C39.4407 7.3454 38.9954 6.90015 38.4463 6.90015H30.4917C29.9426 6.90015 29.4974 7.3454 29.4974 7.89451C29.4974 8.44373 29.9426 8.88888 30.4917 8.88888Z" fill="white"/>
<path d="M24.6089 25.3584H28.5862C29.1353 25.3584 29.5805 24.9131 29.5805 24.364C29.5805 23.8149 29.1353 23.3696 28.5862 23.3696H24.6089C24.0598 23.3696 23.6146 23.8149 23.6146 24.364C23.6146 24.9131 24.0598 25.3584 24.6089 25.3584Z" fill="white"/>
<path d="M27.594 21.3806H28.5883C29.1375 21.3806 29.5827 20.9353 29.5827 20.3862C29.5827 19.8371 29.1375 19.3918 28.5883 19.3918H27.594C27.0449 19.3918 26.5996 19.8371 26.5996 20.3862C26.5996 20.9354 27.0449 21.3806 27.594 21.3806Z" fill="white"/>
<path d="M22.6174 21.3806H23.6118C24.1609 21.3806 24.6061 20.9353 24.6061 20.3862C24.6061 19.8371 24.1609 19.3918 23.6118 19.3918H22.6174C22.0683 19.3918 21.623 19.8371 21.623 20.3862C21.623 20.9354 22.0683 21.3806 22.6174 21.3806Z" fill="white"/>
<path d="M10.691 25.3584H20.6342C21.1833 25.3584 21.6285 24.9131 21.6285 24.364C21.6285 23.8149 21.1833 23.3696 20.6342 23.3696H10.691C10.1419 23.3696 9.69659 23.8149 9.69659 24.364C9.69659 24.9131 10.1419 25.3584 10.691 25.3584Z" fill="white"/>
<path d="M34.5585 25.3582C36.2059 25.3582 37.5415 24.0227 37.5415 22.3752C37.5415 20.7278 36.2059 19.3922 34.5585 19.3922C32.911 19.3922 31.5755 20.7278 31.5755 22.3752C31.5755 24.0227 32.911 25.3582 34.5585 25.3582Z" fill="#FF6464"/>
<path d="M38.5325 25.3582C40.1799 25.3582 41.5155 24.0227 41.5155 22.3752C41.5155 20.7278 40.1799 19.3922 38.5325 19.3922C36.885 19.3922 35.5495 20.7278 35.5495 22.3752C35.5495 24.0227 36.885 25.3582 38.5325 25.3582Z" fill="#FFD782"/>
<path d="M35.5495 22.3746C35.5495 23.2545 35.9378 24.0373 36.5439 24.5833C37.1499 24.0373 37.5382 23.2545 37.5382 22.3746C37.5382 21.4947 37.15 20.7118 36.5439 20.1659C35.9376 20.7118 35.5495 21.4945 35.5495 22.3746Z" fill="#FFA05A"/>
</svg>
