<svg width="44" height="44" viewBox="0 0 44 44" fill="none" xmlns="http://www.w3.org/2000/svg">
<g clip-path="url(#clip0_1_244)">
<path d="M21.8735 9.11447C15.8416 9.11447 10.9362 14.0199 10.9362 20.0518C10.9362 26.0838 15.8416 30.9892 21.8735 30.9892C27.9055 30.9892 32.8109 26.0838 32.8109 20.0518C32.8109 14.0199 27.9055 9.11447 21.8735 9.11447ZM21.6457 18.6847H22.1014C23.9862 18.6847 25.5193 20.2177 25.5193 22.1026C25.5193 23.5864 24.5641 24.8387 23.2407 25.3109V25.9762C23.2407 26.7309 22.6282 27.3434 21.8735 27.3434C21.1188 27.3434 20.5063 26.7309 20.5063 25.9762V25.5205H19.5949C18.8402 25.5205 18.2277 24.908 18.2277 24.1533C18.2277 23.3987 18.8402 22.7862 19.5949 22.7862H22.1014C22.4787 22.7862 22.785 22.4799 22.785 22.1026C22.785 21.7252 22.4787 21.419 22.1014 21.419H21.6457C19.7608 21.419 18.2277 19.8859 18.2277 18.0011C18.2277 16.5172 19.1829 15.2649 20.5063 14.7928V14.1274C20.5063 13.3727 21.1188 12.7603 21.8735 12.7603C22.6282 12.7603 23.2407 13.3727 23.2407 14.1274V14.5832H24.1521C24.9068 14.5832 25.5193 15.1956 25.5193 15.9503C25.5193 16.705 24.9068 17.3175 24.1521 17.3175H21.6457C21.2683 17.3175 20.9621 17.6237 20.9621 18.0011C20.9621 18.3784 21.2683 18.6847 21.6457 18.6847Z" fill="#F8B509"/>
<path d="M40.5983 18.7248C39.8436 18.7248 39.2311 19.3373 39.2311 20.0919C39.2311 28.2676 33.54 35.1235 25.9167 36.9537V35.2493C25.9167 34.0352 24.4456 33.4209 23.5834 34.2832L20.016 37.8487C19.4819 38.3828 19.4819 39.2487 20.016 39.7828L23.5834 43.3484C24.4383 44.2033 25.9167 43.6054 25.9167 42.3823V39.7737C35.064 37.8979 41.9655 29.7861 41.9655 20.0919C41.9655 19.3373 41.353 18.7248 40.5983 18.7248V18.7248Z" fill="#1DCBB6"/>
<path d="M16.084 36.4378C9.16431 34.0134 4.51593 27.4455 4.51593 20.0919C4.51593 18.0102 4.89145 15.9886 5.59691 14.0891L7.23569 15.0334C8.28385 15.6404 9.55441 14.6761 9.24087 13.4949L7.85547 8.32879C7.6586 7.60328 6.9258 7.17308 6.17841 7.36266L1.01051 8.74624C-0.165255 9.0616 -0.367596 10.6457 0.682391 11.2509L3.19616 12.7019C2.27013 15.0279 1.78342 17.5216 1.78342 20.0919C1.78342 28.603 7.16642 36.2099 15.1817 39.019C15.9054 39.2688 16.6765 38.886 16.9244 38.1805C17.1723 37.4677 16.7968 36.6875 16.084 36.4378V36.4378Z" fill="#1DCBB6"/>
<path d="M42.0275 8.96317L39.0871 9.75066C35.5088 3.83901 28.9865 0 21.8736 0C17.2944 0 13.0034 1.50571 9.46147 4.34942C8.87268 4.82338 8.77971 5.68378 9.25184 6.27258C9.72762 6.86319 10.5862 6.95434 11.175 6.48221C14.2265 4.03042 17.9252 2.73434 21.8736 2.73434C27.7469 2.73434 33.1481 5.76763 36.3127 10.4926L34.7195 10.9191C33.5455 11.2345 33.3377 12.8149 34.3895 13.4238L39.0215 16.0998C39.3369 16.2821 39.7069 16.3295 40.0587 16.2365C40.4069 16.1417 40.7059 15.9139 40.8881 15.5985L43.566 10.9665C44.1694 9.91836 43.2123 8.64963 42.0275 8.96317V8.96317Z" fill="#1DCBB6"/>
</g>
<defs>
<clipPath id="clip0_1_244">
<rect width="43.75" height="43.75" fill="white"/>
</clipPath>
</defs>
</svg>
